<?xml version="1.0" encoding="UTF-8" standalone="no"?>
<!DOCTYPE svg PUBLIC "-//W3C//DTD SVG 1.1//EN" "http://www.w3.org/Graphics/SVG/1.1/DTD/svg11.dtd">
<!-- Generated by graphviz version 2.40.1 (20161225.0304)
 -->
<!-- Title: G Pages: 1 -->
<svg width="498pt" height="476pt" viewBox="0.00 0.00 498.00 476.00" xmlns="http://www.w3.org/2000/svg" xmlns:xlink="http://www.w3.org/1999/xlink">
<g id="graph0" class="graph" transform="scale(1 1) rotate(0) translate(4 472)">
<title>G</title>
<polygon fill="#ffffff" stroke="transparent" points="-4,4 -4,-472 494,-472 494,4 -4,4"/>
<!-- zero -->
<g id="node1" class="node">
<title>zero</title>
<ellipse fill="none" stroke="#000000" cx="308" cy="-450" rx="27.8073" ry="18"/>
<text text-anchor="middle" x="308" y="-445.8" font-family="Times,serif" font-size="14.00" fill="#000000">zero</text>
</g>
<!-- a0 -->
<g id="node2" class="node">
<title>a0</title>
<ellipse fill="none" stroke="#000000" cx="262" cy="-378" rx="27" ry="18"/>
<text text-anchor="middle" x="262" y="-373.8" font-family="Times,serif" font-size="14.00" fill="#000000">a0</text>
</g>
<!-- zero&#45;&#45;a0 -->
<g id="edge1" class="edge">
<title>zero--a0</title>
<path fill="none" stroke="#000000" d="M297.3311,-433.3008C289.8996,-421.669 280.0298,-406.2206 272.6111,-394.6087"/>
</g>
<!-- v32 -->
<g id="node3" class="node">
<title>v32</title>
<ellipse fill="none" stroke="#000000" cx="374" cy="-306" rx="27" ry="18"/>
<text text-anchor="middle" x="374" y="-301.8" font-family="Times,serif" font-size="14.00" fill="#000000">v32</text>
</g>
<!-- zero&#45;&#45;v32 -->
<g id="edge2" class="edge">
<title>zero--v32</title>
<path fill="none" stroke="#000000" d="M315.9611,-432.6302C328.6466,-404.9528 353.3074,-351.1475 366.0106,-323.4314"/>
</g>
<!-- v33 -->
<g id="node4" class="node">
<title>v33</title>
<ellipse fill="none" stroke="#000000" cx="207" cy="-234" rx="27" ry="18"/>
<text text-anchor="middle" x="207" y="-229.8" font-family="Times,serif" font-size="14.00" fill="#000000">v33</text>
</g>
<!-- zero&#45;&#45;v33 -->
<g id="edge3" class="edge">
<title>zero--v33</title>
<path fill="none" stroke="#000000" d="M283.9863,-440.9148C264.9226,-432.3644 239.3315,-417.618 226,-396 197.9071,-350.4452 200.939,-283.8553 204.4503,-252.12"/>
</g>
<!-- v40 -->
<g id="node10" class="node">
<title>v40</title>
<ellipse fill="none" stroke="#000000" cx="376" cy="-18" rx="27" ry="18"/>
<text text-anchor="middle" x="376" y="-13.8" font-family="Times,serif" font-size="14.00" fill="#000000">v40</text>
</g>
<!-- zero&#45;&#45;v40 -->
<g id="edge4" class="edge">
<title>zero--v40</title>
<path fill="none" stroke="#000000" d="M333.6901,-442.8718C383.8586,-427.2109 490,-384.7694 490,-306 490,-306 490,-306 490,-162 490,-102.0545 428.519,-52.4938 395.8573,-30.3942"/>
</g>
<!-- a0&#45;&#45;v32 -->
<g id="edge5" class="edge">
<title>a0--v32</title>
<path fill="none" stroke="#000000" d="M281.5089,-365.4586C301.9404,-352.324 333.8506,-331.8104 354.3389,-318.6393"/>
</g>
<!-- a0&#45;&#45;v33 -->
<g id="edge6" class="edge">
<title>a0--v33</title>
<path fill="none" stroke="#000000" d="M255.2559,-360.3428C244.6999,-332.7053 224.3891,-279.5278 213.7992,-251.8017"/>
</g>
<!-- v34 -->
<g id="node5" class="node">
<title>v34</title>
<ellipse fill="none" stroke="#000000" cx="245" cy="-162" rx="27" ry="18"/>
<text text-anchor="middle" x="245" y="-157.8" font-family="Times,serif" font-size="14.00" fill="#000000">v34</text>
</g>
<!-- a0&#45;&#45;v34 -->
<g id="edge7" class="edge">
<title>a0--v34</title>
<path fill="none" stroke="#000000" d="M260.5798,-359.9555C257.3798,-319.2967 249.6356,-220.8988 246.4281,-180.1451"/>
</g>
<!-- v36 -->
<g id="node6" class="node">
<title>v36</title>
<ellipse fill="none" stroke="#000000" cx="321" cy="-90" rx="27" ry="18"/>
<text text-anchor="middle" x="321" y="-85.8" font-family="Times,serif" font-size="14.00" fill="#000000">v36</text>
</g>
<!-- a0&#45;&#45;v36 -->
<g id="edge8" class="edge">
<title>a0--v36</title>
<path fill="none" stroke="#000000" d="M266.142,-360.0293C274.0887,-325.3203 291.8521,-246.6049 305,-180 309.9175,-155.0887 314.9381,-126.1603 318.0121,-107.9671"/>
</g>
<!-- v37 -->
<g id="node7" class="node">
<title>v37</title>
<ellipse fill="none" stroke="#000000" cx="173" cy="-90" rx="27" ry="18"/>
<text text-anchor="middle" x="173" y="-85.8" font-family="Times,serif" font-size="14.00" fill="#000000">v37</text>
</g>
<!-- a0&#45;&#45;v37 -->
<g id="edge9" class="edge">
<title>a0--v37</title>
<path fill="none" stroke="#000000" d="M246.2876,-363.1332C224.4301,-341.2487 185.8606,-297.9576 171,-252 154.8173,-201.9536 163.3437,-138.5811 169.1156,-108.0552"/>
</g>
<!-- v38 -->
<g id="node8" class="node">
<title>v38</title>
<ellipse fill="none" stroke="#000000" cx="97" cy="-90" rx="27" ry="18"/>
<text text-anchor="middle" x="97" y="-85.8" font-family="Times,serif" font-size="14.00" fill="#000000">v38</text>
</g>
<!-- a0&#45;&#45;v38 -->
<g id="edge10" class="edge">
<title>a0--v38</title>
<path fill="none" stroke="#000000" d="M239.6995,-367.3651C222.3694,-358.0852 198.8559,-343.1177 184,-324 130.4123,-255.0392 107.2833,-149.6651 99.8641,-107.9243"/>
</g>
<!-- v39 -->
<g id="node9" class="node">
<title>v39</title>
<ellipse fill="none" stroke="#000000" cx="66" cy="-18" rx="27" ry="18"/>
<text text-anchor="middle" x="66" y="-13.8" font-family="Times,serif" font-size="14.00" fill="#000000">v39</text>
</g>
<!-- a0&#45;&#45;v39 -->
<g id="edge11" class="edge">
<title>a0--v39</title>
<path fill="none" stroke="#000000" d="M234.9482,-375.8006C168.0077,-368.7348 0,-340.4024 0,-234 0,-234 0,-234 0,-162 0,-111.6736 33.7261,-59.714 52.9605,-34.173"/>
</g>
<!-- a0&#45;&#45;v40 -->
<g id="edge12" class="edge">
<title>a0--v40</title>
<path fill="none" stroke="#000000" d="M288.7115,-374.547C321.0713,-369.0825 375.5248,-355.6064 410,-324 442.5369,-294.1706 452,-278.1412 452,-234 452,-234 452,-234 452,-162 452,-109.9864 412.7383,-58.3517 390.6536,-33.4216"/>
</g>
<!-- v32&#45;&#45;v33 -->
<g id="edge13" class="edge">
<title>v32--v33</title>
<path fill="none" stroke="#000000" d="M351.1295,-296.1397C319.2386,-282.3903 261.7478,-257.6038 229.8616,-243.8565"/>
</g>
<!-- v32&#45;&#45;v34 -->
<g id="edge14" class="edge">
<title>v32--v34</title>
<path fill="none" stroke="#000000" d="M359.9492,-290.3154C335.1349,-262.6157 283.8354,-205.3512 259.0335,-177.6653"/>
</g>
<!-- v32&#45;&#45;v40 -->
<g id="edge15" class="edge">
<title>v32--v40</title>
<path fill="none" stroke="#000000" d="M374.2429,-287.9823C374.6983,-253.193 375.6649,-174.3463 376,-108 376.1255,-83.1566 376.0951,-54.4552 376.054,-36.2717"/>
</g>
<!-- v33&#45;&#45;v34 -->
<g id="edge16" class="edge">
<title>v33--v34</title>
<path fill="none" stroke="#000000" d="M216.0055,-216.937C221.9752,-205.626 229.7851,-190.8282 235.7952,-179.4407"/>
</g>
<!-- v33&#45;&#45;v36 -->
<g id="edge17" class="edge">
<title>v33--v36</title>
<path fill="none" stroke="#000000" d="M228.1665,-222.6641C244.3944,-213.0888 266.4119,-198.0654 281,-180 298.7249,-158.0502 310.2181,-127.0072 316.1494,-107.7111"/>
</g>
<!-- v33&#45;&#45;v37 -->
<g id="edge18" class="edge">
<title>v33--v37</title>
<path fill="none" stroke="#000000" d="M202.7626,-216.0535C196.2473,-188.4592 183.8381,-135.9026 177.2908,-108.1727"/>
</g>
<!-- v33&#45;&#45;v38 -->
<g id="edge19" class="edge">
<title>v33--v38</title>
<path fill="none" stroke="#000000" d="M194.5954,-217.7613C173.4691,-190.105 130.7382,-134.1664 109.528,-106.4003"/>
</g>
<!-- v33&#45;&#45;v39 -->
<g id="edge20" class="edge">
<title>v33--v39</title>
<path fill="none" stroke="#000000" d="M185.0986,-223.4679C150.611,-205.4527 85.0949,-165.0618 61,-108 51.0773,-84.5011 55.8176,-54.4396 60.5713,-35.6993"/>
</g>
<!-- v33&#45;&#45;v40 -->
<g id="edge21" class="edge">
<title>v33--v40</title>
<path fill="none" stroke="#000000" d="M230.1969,-224.7346C251.2822,-215.5418 282.452,-199.9551 305,-180 334.5595,-153.8397 341.0209,-144.0942 357,-108 367.4079,-84.4901 372.2396,-54.9542 374.3923,-36.2705"/>
</g>
<!-- v34&#45;&#45;v36 -->
<g id="edge22" class="edge">
<title>v34--v36</title>
<path fill="none" stroke="#000000" d="M260.7472,-147.0816C273.7907,-134.7246 292.235,-117.251 305.2729,-104.8993"/>
</g>
<!-- v34&#45;&#45;v37 -->
<g id="edge23" class="edge">
<title>v34--v37</title>
<path fill="none" stroke="#000000" d="M229.7307,-146.7307C217.512,-134.512 200.4602,-117.4602 188.2473,-105.2473"/>
</g>
<!-- v34&#45;&#45;v38 -->
<g id="edge24" class="edge">
<title>v34--v38</title>
<path fill="none" stroke="#000000" d="M223.1621,-151.3762C195.1803,-137.7634 146.9525,-114.3012 118.9275,-100.6674"/>
</g>
<!-- v34&#45;&#45;v39 -->
<g id="edge25" class="edge">
<title>v34--v39</title>
<path fill="none" stroke="#000000" d="M242.2473,-144.0652C238.2711,-123.9823 229.0646,-91.6783 209,-72 176.7912,-40.4113 124.2997,-26.9635 92.6669,-21.4931"/>
</g>
<!-- v34&#45;&#45;v40 -->
<g id="edge26" class="edge">
<title>v34--v40</title>
<path fill="none" stroke="#000000" d="M249.4637,-143.961C255.0563,-124.3779 266.2545,-93.0849 285,-72 303.5533,-51.1313 332.1556,-36.007 352.333,-27.1628"/>
</g>
<!-- v36&#45;&#45;v40 -->
<g id="edge27" class="edge">
<title>v36--v40</title>
<path fill="none" stroke="#000000" d="M333.4804,-73.6621C342.4814,-61.8788 354.5793,-46.0416 363.569,-34.2733"/>
</g>
<!-- v37&#45;&#45;v40 -->
<g id="edge28" class="edge">
<title>v37--v40</title>
<path fill="none" stroke="#000000" d="M197.0839,-81.4579C236.1531,-67.6009 312.8984,-40.3809 351.9474,-26.531"/>
</g>
<!-- v38&#45;&#45;v39 -->
<g id="edge29" class="edge">
<title>v38--v39</title>
<path fill="none" stroke="#000000" d="M89.4958,-72.5708C84.6576,-61.3339 78.3882,-46.7727 73.5426,-35.5182"/>
</g>
</g>
</svg>