<?xml version="1.0" encoding="UTF-8"?>
<!DOCTYPE svg PUBLIC "-//W3C//DTD SVG 1.1//EN" "http://www.w3.org/Graphics/SVG/1.1/DTD/svg11.dtd">
<svg xmlns="http://www.w3.org/2000/svg" xmlns:xlink="http://www.w3.org/1999/xlink" version="1.1" width="931px" height="212px" viewBox="-0.5 -0.5 931 212" style="background-color: rgb(255, 255, 255);"><defs/><g><rect x="760" y="1" width="20" height="40" fill="#ffffff" stroke="#000000" pointer-events="all"/><rect x="870" y="1" width="20" height="40" fill="#ffffff" stroke="#000000" pointer-events="all"/><rect x="590" y="1" width="20" height="40" fill="#ffffff" stroke="#000000" pointer-events="all"/><rect x="60" y="1" width="280" height="40" fill="#ffffff" stroke="#000000" pointer-events="all"/><rect x="0" y="81" width="120" height="40" fill="#ffffff" stroke="#000000" pointer-events="all"/><rect x="90" y="121" width="110" height="40" fill="#ffffff" stroke="#000000" pointer-events="all"/><rect x="270" y="171" width="120" height="40" fill="#ffffff" stroke="#000000" pointer-events="all"/><path d="M 340 41 L 340 1" fill="none" stroke="#006eaf" stroke-width="2" stroke-miterlimit="10" pointer-events="stroke"/><path d="M 60 41 L 60 1" fill="none" stroke="#006eaf" stroke-width="2" stroke-miterlimit="10" pointer-events="stroke"/><path d="M 140 41 L 140 1" fill="none" stroke="#006eaf" stroke-width="2" stroke-miterlimit="10" pointer-events="stroke"/><path d="M 230 41 L 230 1" fill="none" stroke="#006eaf" stroke-width="2" stroke-miterlimit="10" pointer-events="stroke"/><path d="M 401 86.5 L 401 75.5 L 459 75.5 L 459 64.5 L 479 81 L 459 97.5 L 459 86.5 Z" fill="none" stroke="#000000" stroke-width="2" stroke-linejoin="round" stroke-miterlimit="10" pointer-events="all"/><rect x="540" y="81" width="120" height="40" fill="#ffffff" stroke="#000000" pointer-events="all"/><rect x="630" y="121" width="110" height="40" fill="#ffffff" stroke="#000000" pointer-events="all"/><rect x="810" y="171" width="120" height="40" fill="#ffffff" stroke="#000000" pointer-events="all"/><path d="M 880 41 L 880 1" fill="none" stroke="#006eaf" stroke-width="2" stroke-miterlimit="10" pointer-events="stroke"/><path d="M 600 41 L 600 1" fill="none" stroke="#006eaf" stroke-width="2" stroke-miterlimit="10" pointer-events="stroke"/><path d="M 770 41 L 770 1" fill="none" stroke="#006eaf" stroke-width="2" stroke-miterlimit="10" pointer-events="stroke"/><rect x="670" y="1" width="20" height="40" fill="#ffffff" stroke="#000000" pointer-events="all"/><path d="M 680 41 L 680 1" fill="none" stroke="#006eaf" stroke-width="2" stroke-miterlimit="10" pointer-events="stroke"/></g></svg>